<?xml version="1.0" encoding="iso-8859-1"?>
<!-- Generator: Adobe Illustrator 19.0.0, SVG Export Plug-In . SVG Version: 6.00 Build 0)  -->
<svg version="1.1" id="Layer_1" xmlns="http://www.w3.org/2000/svg" xmlns:xlink="http://www.w3.org/1999/xlink" x="0px" y="0px"
	 viewBox="0 0 512 512" style="enable-background:new 0 0 512 512;" xml:space="preserve">
<path style="fill:#80D0E1;" d="M417.132,426.005H94.868c-43.426,0-78.757-35.331-78.757-78.757V78.757
	C16.109,35.33,51.44,0,94.868,0h322.265c43.426,0,78.757,35.33,78.757,78.757v268.492
	C495.889,390.676,460.558,426.005,417.132,426.005z"/>
<path style="fill:#51B3DA;" d="M417.132,0H255.999v426.005h161.133c43.426,0,78.757-35.331,78.757-78.757V78.757
	C495.889,35.33,460.558,0,417.132,0z"/>
<g>
	<path style="fill:#36495E;" d="M391.112,105.444H255.995c-11.274,0-20.415,9.14-20.415,20.415s9.14,20.415,20.415,20.415h135.117
		c11.274,0,20.415-9.14,20.415-20.415C411.526,114.583,402.387,105.444,391.112,105.444z"/>
	<path style="fill:#36495E;" d="M118.881,146.169c1.425,0.144,2.587,0.146,4.015,0c10.674-1.109,18.4-9.98,18.4-20.306
		c0-10.269-7.656-19.193-18.4-20.319c-1.334-0.136-2.682-0.136-4.015,0c-10.798,1.108-18.414,10.184-18.414,20.319
		C100.467,135.996,108.092,145.073,118.881,146.169z"/>
	<path style="fill:#36495E;" d="M256.003,279.733H120.887c-11.274,0-20.415,9.14-20.415,20.415c0,11.274,9.14,20.415,20.415,20.415
		h135.117c11.274,0,20.415-9.14,20.415-20.415C276.418,288.873,267.278,279.733,256.003,279.733z"/>
	<path style="fill:#36495E;" d="M186.445,146.169c1.425,0.144,2.587,0.146,4.015,0c10.674-1.109,18.4-9.98,18.4-20.306
		c0-10.269-7.656-19.193-18.4-20.319c-1.334-0.136-2.682-0.136-4.015,0c-10.798,1.108-18.414,10.184-18.414,20.319
		C168.03,135.996,175.657,145.073,186.445,146.169z"/>
	<path style="fill:#36495E;" d="M118.881,233.312c1.425,0.144,2.587,0.146,4.015,0c10.674-1.109,18.4-9.98,18.4-20.306
		c0-10.269-7.656-19.193-18.4-20.319c-1.334-0.136-2.682-0.136-4.015,0c-10.798,1.108-18.414,10.184-18.414,20.319
		C100.467,223.139,108.092,232.217,118.881,233.312z"/>
	<path style="fill:#36495E;" d="M253.999,233.312c1.425,0.144,2.587,0.146,4.015,0c10.674-1.109,18.4-9.98,18.4-20.306
		c0-10.269-7.656-19.193-18.4-20.319c-1.334-0.136-2.682-0.136-4.015,0c-10.798,1.108-18.414,10.184-18.414,20.319
		C235.585,223.139,243.21,232.217,253.999,233.312z"/>
</g>
<g>
	<path style="fill:#2C3E50;" d="M389.11,233.312c1.425,0.144,2.587,0.146,4.015,0c10.674-1.109,18.4-9.98,18.4-20.306
		c0-10.269-7.656-19.193-18.4-20.319c-1.334-0.136-2.682-0.136-4.015,0c-10.798,1.108-18.414,10.184-18.414,20.319
		C370.696,223.139,378.321,232.217,389.11,233.312z"/>
	<path style="fill:#2C3E50;" d="M389.11,320.456c1.425,0.144,2.587,0.146,4.015,0c10.674-1.109,18.4-9.98,18.4-20.306
		c0-10.267-7.656-19.193-18.4-20.319c-1.334-0.136-2.682-0.136-4.015,0c-10.798,1.108-18.414,10.184-18.414,20.319
		C370.696,310.283,378.321,319.36,389.11,320.456z"/>
	<path style="fill:#2C3E50;" d="M322.048,320.456c1.425,0.144,2.587,0.146,4.015,0c10.674-1.109,18.4-9.98,18.4-20.306
		c0-10.267-7.655-19.193-18.4-20.319c-1.334-0.136-2.682-0.136-4.015,0c-10.798,1.108-18.414,10.184-18.414,20.319
		C303.634,310.283,311.259,319.36,322.048,320.456z"/>
	<path style="fill:#2C3E50;" d="M256.003,279.733h-0.008v40.829h0.008c11.274,0,20.415-9.14,20.415-20.415
		C276.418,288.873,267.278,279.733,256.003,279.733z"/>
	<path style="fill:#2C3E50;" d="M258.015,192.687c-0.671-0.068-1.345-0.102-2.02-0.102v40.835c0.651,0,1.301-0.035,2.02-0.109
		c10.674-1.109,18.4-9.98,18.4-20.306C276.414,202.738,268.76,193.814,258.015,192.687z"/>
	<path style="fill:#2C3E50;" d="M391.112,105.444H255.995l0,0v40.829l0,0h135.117c11.274,0,20.415-9.14,20.415-20.415
		C411.526,114.583,402.387,105.444,391.112,105.444z"/>
</g>
<g>
</g>
<g>
</g>
<g>
</g>
<g>
</g>
<g>
</g>
<g>
</g>
<g>
</g>
<g>
</g>
<g>
</g>
<g>
</g>
<g>
</g>
<g>
</g>
<g>
</g>
<g>
</g>
<g>
</g>
</svg>
